# xmcd
#
# Track frame offsets:
# 150
# 7002
# 22737
# 37307
# 56231
# 72590
# 92454
# 106199
# 123642
# 145178
# 158918
# 174102
# 189091
# 203977
#
# Disc length: 2901 seconds
#
#
# Revision: 0
# Processed by: cddbd v1.5.2PL0 Copyright (c) Steve Scherf et al.
# Submitted via: Nero 7, 11, 10, 0 
#
DISCID=bb0b530e
DTITLE=The Heaters - Made In The Shade
DYEAR=2002
DGENRE=Blues
TTITLE0=Just A Little Bit
TTITLE1=Shot Down
TTITLE2=Don't You Know
TTITLE3=Made In The Shade
TTITLE4=You Made Me Flip
TTITLE5=Easy To Love You
TTITLE6=Wrong, Wrong, Wrong
TTITLE7=People Talk
TTITLE8=Love At Midnight
TTITLE9=Rocket City
TTITLE10=The Window
TTITLE11=It's Never Over ('Til It's Over)
TTITLE12=Wearin' Thin
TTITLE13=Just A Little Bit (reprise)
EXTD=
EXTT0=Just A Little Bit
EXTT1=Shot Down
EXTT2=Don't You Know
EXTT3=Made In The Shade
EXTT4=You Made Me Flip
EXTT5=Easy To Love You
EXTT6=Wrong, Wrong, Wrong
EXTT7=People Talk
EXTT8=Love At Midnight
EXTT9=Rocket City
EXTT10=The Window
EXTT11=It's Never Over ('Til It's Over)
EXTT12=Wearin' Thin
EXTT13=Just A Little Bit (reprise)
PLAYORDER=
